<?xml version="1.0" encoding="UTF-8"?>
<!DOCTYPE svg PUBLIC "-//W3C//DTD SVG 1.1//EN" "http://www.w3.org/Graphics/SVG/1.1/DTD/svg11.dtd">
<svg xmlns="http://www.w3.org/2000/svg" version="1.1" width="512px" height="512px" style="shape-rendering:geometricPrecision; text-rendering:geometricPrecision; image-rendering:optimizeQuality; fill-rule:evenodd; clip-rule:evenodd" xmlns:xlink="http://www.w3.org/1999/xlink">
<g><path style="opacity:0.966" fill="#8bdba2" d="M 384.5,47.5 C 384.5,49.5 383.5,50.5 381.5,50.5C 375.808,49.5281 370.141,48.3615 364.5,47C 357.5,46.3333 350.5,46.3333 343.5,47C 341.942,47.21 340.609,47.71 339.5,48.5C 326.635,53.0393 318.635,62.0393 315.5,75.5C 313.685,74.3702 311.685,73.7036 309.5,73.5C 299.374,64.417 292.707,53.2503 289.5,40C 289.36,37.3067 290.36,35.14 292.5,33.5C 310.351,20.3146 330.017,16.8146 351.5,23C 365.429,27.2902 376.429,35.4569 384.5,47.5 Z"/></g>
<g><path style="opacity:0.957" fill="#feeca3" d="M 406.5,52.5 C 406.167,52.5 405.833,52.5 405.5,52.5C 404.833,52.5 404.5,52.8333 404.5,53.5C 402.205,54.1355 400.539,55.4689 399.5,57.5C 396.578,59.594 394.078,62.2607 392,65.5C 389.689,69.9545 387.522,74.4545 385.5,79C 375.32,82.66 371.154,79.16 373,68.5C 375.016,62.2971 378.183,56.7971 382.5,52C 381.944,51.6174 381.611,51.1174 381.5,50.5C 383.5,50.5 384.5,49.5 384.5,47.5C 397.613,33.8523 413.613,28.6857 432.5,32C 438.995,33.8456 441.162,38.0122 439,44.5C 437.833,45.6667 436.667,46.8333 435.5,48C 428.167,48.3333 420.833,48.6667 413.5,49C 410.826,49.6701 408.493,50.8368 406.5,52.5 Z"/></g>
<g><path style="opacity:1" fill="#f28763" d="M 381.5,50.5 C 381.611,51.1174 381.944,51.6174 382.5,52C 378.183,56.7971 375.016,62.2971 373,68.5C 371.154,79.16 375.32,82.66 385.5,79C 387.522,74.4545 389.689,69.9545 392,65.5C 394.078,62.2607 396.578,59.594 399.5,57.5C 413.354,62.1983 424.854,70.1983 434,81.5C 441.585,96.0713 441.085,110.405 432.5,124.5C 428.206,130.129 423.539,135.463 418.5,140.5C 385.055,160.627 360.555,152.96 345,117.5C 337.449,98.0989 335.115,78.0989 338,57.5C 338.78,54.4883 339.947,51.6549 341.5,49C 340.906,48.5357 340.239,48.369 339.5,48.5C 340.609,47.71 341.942,47.21 343.5,47C 350.5,46.3333 357.5,46.3333 364.5,47C 370.141,48.3615 375.808,49.5281 381.5,50.5 Z"/></g>
<g><path style="opacity:1" fill="#f0693d" d="M 339.5,48.5 C 340.239,48.369 340.906,48.5357 341.5,49C 339.947,51.6549 338.78,54.4883 338,57.5C 335.115,78.0989 337.449,98.0989 345,117.5C 360.555,152.96 385.055,160.627 418.5,140.5C 405.579,153.565 390.245,162.731 372.5,168C 352.607,171.136 337.773,163.969 328,146.5C 315.933,124.161 311.767,100.494 315.5,75.5C 318.635,62.0393 326.635,53.0393 339.5,48.5 Z"/></g>
<g><path style="opacity:0.974" fill="#8bdba2" d="M 405.5,52.5 C 405.833,52.5 406.167,52.5 406.5,52.5C 442.112,50.9761 465.612,66.9761 477,100.5C 478.424,106.776 478.758,113.109 478,119.5C 476.982,121.928 475.148,123.262 472.5,123.5C 464.696,125.912 456.696,127.245 448.5,127.5C 442.815,127.699 437.481,126.699 432.5,124.5C 441.085,110.405 441.585,96.0713 434,81.5C 424.854,70.1983 413.354,62.1983 399.5,57.5C 400.539,55.4689 402.205,54.1355 404.5,53.5C 405.167,53.5 405.5,53.1667 405.5,52.5 Z"/></g>
<g><path style="opacity:0.994" fill="#f8c2b0" d="M 309.5,73.5 C 311.685,73.7036 313.685,74.3702 315.5,75.5C 311.767,100.494 315.933,124.161 328,146.5C 337.773,163.969 352.607,171.136 372.5,168C 390.245,162.731 405.579,153.565 418.5,140.5C 423.539,135.463 428.206,130.129 432.5,124.5C 437.481,126.699 442.815,127.699 448.5,127.5C 456.696,127.245 464.696,125.912 472.5,123.5C 487.972,144.441 499.806,167.441 508,192.5C 509.78,197.003 510.613,201.67 510.5,206.5C 509.245,209.577 506.912,211.41 503.5,212C 345.834,212.5 188.167,212.667 30.5,212.5C 21.4938,212.666 12.4938,212.5 3.5,212C 2.30665,210.905 0.973316,210.072 -0.5,209.5C -0.5,205.833 -0.5,202.167 -0.5,198.5C 102.904,156.814 206.238,115.148 309.5,73.5 Z"/></g>
<g><path style="opacity:1" fill="#fef5d1" d="M 510.5,206.5 C 510.5,252.5 510.5,298.5 510.5,344.5C 504.567,344.691 498.9,343.524 493.5,341C 484.335,335.919 475.335,330.585 466.5,325C 454.099,319.134 441.765,319.134 429.5,325C 424.211,328.62 419.211,332.62 414.5,337C 401.717,345.599 388.384,346.599 374.5,340C 369.211,336.38 364.211,332.38 359.5,328C 346.705,319.4 333.371,318.4 319.5,325C 314.211,328.62 309.211,332.62 304.5,337C 291.699,345.6 278.366,346.6 264.5,340C 259.211,336.38 254.211,332.38 249.5,328C 237.219,319.782 224.219,318.449 210.5,324C 202.446,330.387 194.112,336.387 185.5,342C 175.343,345.602 165.343,345.269 155.5,341C 148.32,335.909 141.32,330.576 134.5,325C 124.083,320.045 113.416,319.378 102.5,323C 94.2992,327.935 86.6325,333.601 79.5,340C 67.9818,345.513 56.3151,345.847 44.5,341C 39.6204,338.729 34.9537,336.229 30.5,333.5C 30.5,333.167 30.5,332.833 30.5,332.5C 30.5,292.5 30.5,252.5 30.5,212.5C 188.167,212.667 345.834,212.5 503.5,212C 506.912,211.41 509.245,209.577 510.5,206.5 Z"/></g>
<g><path style="opacity:1" fill="#feeca3" d="M -0.5,209.5 C 0.973316,210.072 2.30665,210.905 3.5,212C 12.4938,212.5 21.4938,212.666 30.5,212.5C 30.5,252.5 30.5,292.5 30.5,332.5C 21.3715,325.438 11.0382,321.438 -0.5,320.5C -0.5,283.5 -0.5,246.5 -0.5,209.5 Z"/></g>
<g><path style="opacity:1" fill="#fcd9ac" d="M 147.5,228.5 C 155.32,228.152 158.82,231.819 158,239.5C 153,246.167 148,246.167 143,239.5C 142.333,237.5 142.333,235.5 143,233.5C 144.366,231.638 145.866,229.972 147.5,228.5 Z"/></g>
<g><path style="opacity:1" fill="#fcd9ac" d="M 395.5,228.5 C 403.32,228.152 406.82,231.819 406,239.5C 401,246.167 396,246.167 391,239.5C 390.333,237.5 390.333,235.5 391,233.5C 392.366,231.638 393.866,229.972 395.5,228.5 Z"/></g>
<g><path style="opacity:1" fill="#fcd9ac" d="M 259.5,244.5 C 267.32,244.152 270.82,247.819 270,255.5C 265,262.167 260,262.167 255,255.5C 254.333,253.5 254.333,251.5 255,249.5C 256.366,247.638 257.866,245.972 259.5,244.5 Z"/></g>
<g><path style="opacity:1" fill="#fcd9ac" d="M 67.5,260.5 C 75.3204,260.152 78.8204,263.819 78,271.5C 73,278.167 68,278.167 63,271.5C 62.3333,269.5 62.3333,267.5 63,265.5C 64.3657,263.638 65.8657,261.972 67.5,260.5 Z"/></g>
<g><path style="opacity:1" fill="#fcd9ac" d="M 187.5,284.5 C 195.32,284.152 198.82,287.819 198,295.5C 193,302.167 188,302.167 183,295.5C 182.333,293.5 182.333,291.5 183,289.5C 184.366,287.638 185.866,285.972 187.5,284.5 Z"/></g>
<g><path style="opacity:1" fill="#fcd9ac" d="M 339.5,284.5 C 347.32,284.152 350.82,287.819 350,295.5C 345,302.167 340,302.167 335,295.5C 334.333,293.5 334.333,291.5 335,289.5C 336.366,287.638 337.866,285.972 339.5,284.5 Z"/></g>
<g><path style="opacity:1" fill="#fcd9ac" d="M 443.5,284.5 C 451.32,284.152 454.82,287.819 454,295.5C 449,302.167 444,302.167 439,295.5C 438.333,293.5 438.333,291.5 439,289.5C 440.366,287.638 441.866,285.972 443.5,284.5 Z"/></g>
<g><path style="opacity:1" fill="#f6a58a" d="M -0.5,320.5 C 11.0382,321.438 21.3715,325.438 30.5,332.5C 30.5,332.833 30.5,333.167 30.5,333.5C 30.5,350.5 30.5,367.5 30.5,384.5C 21.2793,377.757 10.946,373.757 -0.5,372.5C -0.5,355.167 -0.5,337.833 -0.5,320.5 Z"/></g>
<g><path style="opacity:1" fill="#f9c3b1" d="M 510.5,344.5 C 510.5,361.833 510.5,379.167 510.5,396.5C 504.567,396.691 498.9,395.524 493.5,393C 484.335,387.919 475.335,382.585 466.5,377C 454.099,371.134 441.765,371.134 429.5,377C 424.211,380.62 419.211,384.62 414.5,389C 401.748,397.739 388.415,398.739 374.5,392C 367.68,386.424 360.68,381.091 353.5,376C 341.949,371.029 330.616,371.362 319.5,377C 314.211,380.62 309.211,384.62 304.5,389C 289.5,399 274.5,399 259.5,389C 251.144,378.989 240.478,373.489 227.5,372.5C 221.571,372.452 215.904,373.619 210.5,376C 203.32,381.091 196.32,386.424 189.5,392C 178.305,397.503 166.971,397.836 155.5,393C 148.32,387.909 141.32,382.576 134.5,377C 124.095,371.971 113.428,371.304 102.5,375C 94.2992,379.935 86.6325,385.601 79.5,392C 67.9853,397.568 56.3186,397.901 44.5,393C 39.9251,390.242 35.2585,387.742 30.5,385.5C 30.5,385.167 30.5,384.833 30.5,384.5C 30.5,367.5 30.5,350.5 30.5,333.5C 34.9537,336.229 39.6204,338.729 44.5,341C 56.3151,345.847 67.9818,345.513 79.5,340C 86.6325,333.601 94.2992,327.935 102.5,323C 113.416,319.378 124.083,320.045 134.5,325C 141.32,330.576 148.32,335.909 155.5,341C 165.343,345.269 175.343,345.602 185.5,342C 194.112,336.387 202.446,330.387 210.5,324C 224.219,318.449 237.219,319.782 249.5,328C 254.211,332.38 259.211,336.38 264.5,340C 278.366,346.6 291.699,345.6 304.5,337C 309.211,332.62 314.211,328.62 319.5,325C 333.371,318.4 346.705,319.4 359.5,328C 364.211,332.38 369.211,336.38 374.5,340C 388.384,346.599 401.717,345.599 414.5,337C 419.211,332.62 424.211,328.62 429.5,325C 441.765,319.134 454.099,319.134 466.5,325C 475.335,330.585 484.335,335.919 493.5,341C 498.9,343.524 504.567,344.691 510.5,344.5 Z"/></g>
<g><path style="opacity:1" fill="#fef5d1" d="M 510.5,396.5 C 510.667,427.168 510.5,457.835 510,488.5C 509.167,490 508,491.167 506.5,492C 349.5,492.5 192.5,492.667 35.5,492.5C 33.8657,491.028 32.3657,489.362 31,487.5C 30.5,467.836 30.3334,448.169 30.5,428.5C 38.0387,426.647 40.0387,422.313 36.5,415.5C 34.9288,413.585 32.9288,412.585 30.5,412.5C 30.5,403.5 30.5,394.5 30.5,385.5C 35.2585,387.742 39.9251,390.242 44.5,393C 56.3186,397.901 67.9853,397.568 79.5,392C 86.6325,385.601 94.2992,379.935 102.5,375C 113.428,371.304 124.095,371.971 134.5,377C 141.32,382.576 148.32,387.909 155.5,393C 166.971,397.836 178.305,397.503 189.5,392C 196.32,386.424 203.32,381.091 210.5,376C 215.904,373.619 221.571,372.452 227.5,372.5C 240.478,373.489 251.144,378.989 259.5,389C 274.5,399 289.5,399 304.5,389C 309.211,384.62 314.211,380.62 319.5,377C 330.616,371.362 341.949,371.029 353.5,376C 360.68,381.091 367.68,386.424 374.5,392C 388.415,398.739 401.748,397.739 414.5,389C 419.211,384.62 424.211,380.62 429.5,377C 441.765,371.134 454.099,371.134 466.5,377C 475.335,382.585 484.335,387.919 493.5,393C 498.9,395.524 504.567,396.691 510.5,396.5 Z"/></g>
<g><path style="opacity:1" fill="#feeca4" d="M -0.5,372.5 C 10.946,373.757 21.2793,377.757 30.5,384.5C 30.5,384.833 30.5,385.167 30.5,385.5C 30.5,394.5 30.5,403.5 30.5,412.5C 22.9613,414.353 20.9613,418.687 24.5,425.5C 26.0712,427.415 28.0712,428.415 30.5,428.5C 30.3334,448.169 30.5,467.836 31,487.5C 32.3657,489.362 33.8657,491.028 35.5,492.5C 24.495,492.667 13.495,492.5 2.5,492C 1.75618,490.961 0.75618,490.461 -0.5,490.5C -0.5,451.167 -0.5,411.833 -0.5,372.5 Z"/></g>
<g><path style="opacity:1" fill="#fcd9ab" d="M 30.5,412.5 C 32.9288,412.585 34.9288,413.585 36.5,415.5C 40.0387,422.313 38.0387,426.647 30.5,428.5C 28.0712,428.415 26.0712,427.415 24.5,425.5C 20.9613,418.687 22.9613,414.353 30.5,412.5 Z"/></g>
<g><path style="opacity:1" fill="#fcd9ac" d="M 219.5,412.5 C 227.32,412.152 230.82,415.819 230,423.5C 225,430.167 220,430.167 215,423.5C 214.333,421.5 214.333,419.5 215,417.5C 216.366,415.638 217.866,413.972 219.5,412.5 Z"/></g>
<g><path style="opacity:1" fill="#fcd9ac" d="M 451.5,412.5 C 459.32,412.152 462.82,415.819 462,423.5C 457,430.167 452,430.167 447,423.5C 446.333,421.5 446.333,419.5 447,417.5C 448.366,415.638 449.866,413.972 451.5,412.5 Z"/></g>
<g><path style="opacity:1" fill="#fcd9ac" d="M 283.5,436.5 C 291.32,436.152 294.82,439.819 294,447.5C 289,454.167 284,454.167 279,447.5C 278.333,445.5 278.333,443.5 279,441.5C 280.366,439.638 281.866,437.972 283.5,436.5 Z"/></g>
<g><path style="opacity:1" fill="#fcd9ac" d="M 387.5,444.5 C 395.32,444.152 398.82,447.819 398,455.5C 393,462.167 388,462.167 383,455.5C 382.333,453.5 382.333,451.5 383,449.5C 384.366,447.638 385.866,445.972 387.5,444.5 Z"/></g>
<g><path style="opacity:1" fill="#fcd9ac" d="M 123.5,452.5 C 131.32,452.152 134.82,455.819 134,463.5C 129,470.167 124,470.167 119,463.5C 118.333,461.5 118.333,459.5 119,457.5C 120.366,455.638 121.866,453.972 123.5,452.5 Z"/></g>
</svg>
