<?xml version="1.0" encoding="UTF-8"?>
<!DOCTYPE svg PUBLIC "-//W3C//DTD SVG 1.1//EN" "http://www.w3.org/Graphics/SVG/1.1/DTD/svg11.dtd">
<svg xmlns="http://www.w3.org/2000/svg" version="1.1" width="512px" height="512px" style="shape-rendering:geometricPrecision; text-rendering:geometricPrecision; image-rendering:optimizeQuality; fill-rule:evenodd; clip-rule:evenodd" xmlns:xlink="http://www.w3.org/1999/xlink">
<g><path style="opacity:0.953" fill="#965735" d="M 460.5,-0.5 C 464.5,-0.5 468.5,-0.5 472.5,-0.5C 472.5,5.5 472.5,11.5 472.5,17.5C 450.721,18.0484 434.054,27.3817 422.5,45.5C 419.398,47.6555 417.232,50.6555 416,54.5C 413.151,61.9117 411.651,69.5784 411.5,77.5C 405.833,77.5 400.167,77.5 394.5,77.5C 394.492,65.1959 397.159,53.5292 402.5,42.5C 414.942,18.9386 434.275,4.60531 460.5,-0.5 Z"/></g>
<g><path style="opacity:0.991" fill="#ef614a" d="M 402.5,42.5 C 397.159,53.5292 394.492,65.1959 394.5,77.5C 400.167,77.5 405.833,77.5 411.5,77.5C 411.651,69.5784 413.151,61.9117 416,54.5C 417.232,50.6555 419.398,47.6555 422.5,45.5C 424.5,46.8333 426.5,48.1667 428.5,49.5C 425.907,85.5951 407.24,108.762 372.5,119C 367.863,119.829 363.196,120.329 358.5,120.5C 355.482,115.973 353.316,110.973 352,105.5C 349.319,88.2164 353.486,72.8831 364.5,59.5C 374.635,48.4371 387.302,42.7704 402.5,42.5 Z"/></g>
<g><path style="opacity:0.997" fill="#ea5242" d="M 428.5,49.5 C 445.893,59.26 454.893,74.26 455.5,94.5C 455.47,101.011 454.47,107.344 452.5,113.5C 435.346,145.625 410.013,154.459 376.5,140C 368.545,135.215 362.545,128.715 358.5,120.5C 363.196,120.329 367.863,119.829 372.5,119C 407.24,108.762 425.907,85.5951 428.5,49.5 Z"/></g>
<g><path style="opacity:0.992" fill="#f19b9a" d="M 364.5,59.5 C 353.486,72.8831 349.319,88.2164 352,105.5C 353.316,110.973 355.482,115.973 358.5,120.5C 362.545,128.715 368.545,135.215 376.5,140C 410.013,154.459 435.346,145.625 452.5,113.5C 484.658,146.893 502.991,186.893 507.5,233.5C 339.5,233.5 171.5,233.5 3.5,233.5C 103.937,172.774 204.604,112.274 305.5,52C 325.637,50.9961 345.304,53.4961 364.5,59.5 Z"/></g>
<g><path style="opacity:1" fill="#965735" d="M 304.5,80.5 C 313.479,88.8123 322.146,97.479 330.5,106.5C 326.849,110.652 323.016,114.652 319,118.5C 310.319,109.986 301.819,101.319 293.5,92.5C 297.189,88.4799 300.855,84.4799 304.5,80.5 Z"/></g>
<g><path style="opacity:1" fill="#985938" d="M 222.5,132.5 C 227.419,135.748 231.753,139.748 235.5,144.5C 227.167,153.5 218.5,162.167 209.5,170.5C 205.682,166.182 201.682,162.015 197.5,158C 206.036,149.632 214.369,141.132 222.5,132.5 Z"/></g>
<g><path style="opacity:1" fill="#985837" d="M 300.5,132.5 C 305.419,135.748 309.753,139.748 313.5,144.5C 305.181,153.319 296.681,161.986 288,170.5C 283.833,166.333 279.667,162.167 275.5,158C 284.036,149.632 292.369,141.132 300.5,132.5 Z"/></g>
<g><path style="opacity:1" fill="#995938" d="M 447.5,167.5 C 448.552,167.351 449.552,167.517 450.5,168C 453.667,171.167 456.833,174.333 460,177.5C 460.667,178.5 460.667,179.5 460,180.5C 452.167,188.333 444.333,196.167 436.5,204C 435.5,204.667 434.5,204.667 433.5,204C 430.333,200.833 427.167,197.667 424,194.5C 423.333,193.5 423.333,192.5 424,191.5C 432.036,183.632 439.869,175.632 447.5,167.5 Z"/></g>
<g><path style="opacity:1" fill="#985837" d="M 161.5,167.5 C 166.419,170.748 170.753,174.748 174.5,179.5C 166.681,187.819 158.681,195.986 150.5,204C 149.5,204.667 148.5,204.667 147.5,204C 143.833,200.333 140.167,196.667 136.5,193C 145.036,184.632 153.369,176.132 161.5,167.5 Z"/></g>
<g><path style="opacity:1" fill="#985837" d="M 243.5,167.5 C 252.912,175.408 261.912,183.908 270.5,193C 266.333,197.167 262.167,201.333 258,205.5C 249.319,196.986 240.819,188.319 232.5,179.5C 236.189,175.48 239.855,171.48 243.5,167.5 Z"/></g>
<g><path style="opacity:1" fill="#965735" d="M 352.5,167.5 C 357.239,170.731 361.572,174.564 365.5,179C 356.986,187.681 348.319,196.181 339.5,204.5C 335.348,200.849 331.348,197.016 327.5,193C 336.036,184.632 344.369,176.132 352.5,167.5 Z"/></g>
<g><path style="opacity:1" fill="#ebd2b6" d="M 3.5,234.5 C 3.5,234.167 3.5,233.833 3.5,233.5C 171.5,233.5 339.5,233.5 507.5,233.5C 507.667,311.501 507.5,389.501 507,467.5C 501.977,490.592 488.144,505.258 465.5,511.5C 330.833,511.5 196.167,511.5 61.5,511.5C 81.1667,494.167 100.833,476.833 120.5,459.5C 120.833,459.5 121.167,459.5 121.5,459.5C 225.834,459.667 330.167,459.5 434.5,459C 444.567,456.6 451.067,450.434 454,440.5C 455.424,420.874 455.924,401.207 455.5,381.5C 455.5,375.5 455.5,369.5 455.5,363.5C 455.667,344.83 455.5,326.164 455,307.5C 451.909,296.241 444.742,289.241 433.5,286.5C 397.004,285.502 360.337,285.168 323.5,285.5C 342.574,268.448 361.908,251.615 381.5,235C 255.5,234.5 129.5,234.333 3.5,234.5 Z"/></g>
<g><path style="opacity:0.999" fill="#efdac1" d="M 3.5,234.5 C 129.5,234.333 255.5,234.5 381.5,235C 361.908,251.615 342.574,268.448 323.5,285.5C 216.833,285.5 110.167,285.5 3.5,285.5C 3.5,268.5 3.5,251.5 3.5,234.5 Z"/></g>
<g><path style="opacity:1" fill="#f1bcb7" d="M 3.5,285.5 C 110.167,285.5 216.833,285.5 323.5,285.5C 360.337,285.168 397.004,285.502 433.5,286.5C 395.833,286.5 358.167,286.5 320.5,286.5C 215.167,286.5 109.833,286.5 4.5,286.5C 4.5,312.167 4.5,337.833 4.5,363.5C 4.16667,363.5 3.83333,363.5 3.5,363.5C 3.5,337.5 3.5,311.5 3.5,285.5 Z"/></g>
<g><path style="opacity:1" fill="#f2b8b7" d="M 320.5,286.5 C 291.167,312.167 261.833,337.833 232.5,363.5C 232.167,363.5 231.833,363.5 231.5,363.5C 155.833,363.5 80.1667,363.5 4.5,363.5C 4.5,337.833 4.5,312.167 4.5,286.5C 109.833,286.5 215.167,286.5 320.5,286.5 Z"/></g>
<g><path style="opacity:1" fill="#f1aeac" d="M 320.5,286.5 C 358.167,286.5 395.833,286.5 433.5,286.5C 444.742,289.241 451.909,296.241 455,307.5C 455.5,326.164 455.667,344.83 455.5,363.5C 381.167,363.5 306.833,363.5 232.5,363.5C 261.833,337.833 291.167,312.167 320.5,286.5 Z"/></g>
<g><path style="opacity:1" fill="#f29d9c" d="M 3.5,363.5 C 3.83333,363.5 4.16667,363.5 4.5,363.5C 80.1667,363.5 155.833,363.5 231.5,363.5C 231.5,363.833 231.5,364.167 231.5,364.5C 155.833,364.5 80.1667,364.5 4.5,364.5C 4.5,370.167 4.5,375.833 4.5,381.5C 4.16667,381.5 3.83333,381.5 3.5,381.5C 3.5,375.5 3.5,369.5 3.5,363.5 Z"/></g>
<g><path style="opacity:1" fill="#f19997" d="M 231.5,364.5 C 231.5,364.167 231.5,363.833 231.5,363.5C 231.833,363.5 232.167,363.5 232.5,363.5C 306.833,363.5 381.167,363.5 455.5,363.5C 455.5,369.5 455.5,375.5 455.5,381.5C 455.167,381.5 454.833,381.5 454.5,381.5C 454.5,375.833 454.5,370.167 454.5,364.5C 380.167,364.5 305.833,364.5 231.5,364.5 Z"/></g>
<g><path style="opacity:1" fill="#f28685" d="M 231.5,364.5 C 305.833,364.5 380.167,364.5 454.5,364.5C 454.5,370.167 454.5,375.833 454.5,381.5C 373.167,381.5 291.833,381.5 210.5,381.5C 141.833,381.5 73.1667,381.5 4.5,381.5C 4.5,375.833 4.5,370.167 4.5,364.5C 80.1667,364.5 155.833,364.5 231.5,364.5 Z"/></g>
<g><path style="opacity:1" fill="#f2b9b7" d="M 3.5,381.5 C 3.83333,381.5 4.16667,381.5 4.5,381.5C 73.1667,381.5 141.833,381.5 210.5,381.5C 180.833,407.5 151.167,433.5 121.5,459.5C 121.167,459.5 120.833,459.5 120.5,459.5C 81.5,459.5 42.5,459.5 3.5,459.5C 3.5,433.5 3.5,407.5 3.5,381.5 Z"/></g>
<g><path style="opacity:1" fill="#f1aeac" d="M 210.5,381.5 C 291.833,381.5 373.167,381.5 454.5,381.5C 454.833,381.5 455.167,381.5 455.5,381.5C 455.924,401.207 455.424,420.874 454,440.5C 451.067,450.434 444.567,456.6 434.5,459C 330.167,459.5 225.834,459.667 121.5,459.5C 151.167,433.5 180.833,407.5 210.5,381.5 Z"/></g>
<g><path style="opacity:0.996" fill="#efdac1" d="M 3.5,459.5 C 42.5,459.5 81.5,459.5 120.5,459.5C 100.833,476.833 81.1667,494.167 61.5,511.5C 42.1667,511.5 22.8333,511.5 3.5,511.5C 3.5,494.167 3.5,476.833 3.5,459.5 Z"/></g>
</svg>
