<?xml version="1.0" encoding="UTF-8"?>
<!DOCTYPE svg PUBLIC "-//W3C//DTD SVG 1.1//EN" "http://www.w3.org/Graphics/SVG/1.1/DTD/svg11.dtd">
<svg xmlns="http://www.w3.org/2000/svg" version="1.1" width="512px" height="512px" style="shape-rendering:geometricPrecision; text-rendering:geometricPrecision; image-rendering:optimizeQuality; fill-rule:evenodd; clip-rule:evenodd" xmlns:xlink="http://www.w3.org/1999/xlink">
<g><path style="opacity:0.992" fill="#24ad5e" d="M 179.5,64.5 C 186.561,82.7166 186.061,100.717 178,118.5C 177.329,119.252 176.496,119.586 175.5,119.5C 160.105,99.6451 140.105,92.8118 115.5,99C 109.501,101.333 103.835,104.166 98.5,107.5C 95.5285,93.7298 96.0285,80.0631 100,66.5C 107.512,44.9717 118.012,25.1384 131.5,7C 136.462,3.57738 141.295,3.74405 146,7.5C 160.234,24.6246 171.4,43.6246 179.5,64.5 Z"/></g>
<g><path style="opacity:0.989" fill="#4c8055" d="M 222.5,146.5 C 215.238,150.201 207.571,153.034 199.5,155C 194.511,155.499 189.511,155.666 184.5,155.5C 185.627,142.435 182.627,130.435 175.5,119.5C 176.496,119.586 177.329,119.252 178,118.5C 186.061,100.717 186.561,82.7166 179.5,64.5C 200.411,51.4652 222.911,42.1318 247,36.5C 250.425,36.9194 253.091,38.5861 255,41.5C 256.268,64.6256 253.601,87.2923 247,109.5C 242.53,124.435 234.363,136.769 222.5,146.5 Z"/></g>
<g><path style="opacity:0.997" fill="#e54c3c" d="M 175.5,119.5 C 182.627,130.435 185.627,142.435 184.5,155.5C 180.08,181.754 164.746,197.254 138.5,202C 119.453,204.059 103.619,197.892 91,183.5C 88.7226,179.92 86.2226,176.586 83.5,173.5C 73.4839,147.892 78.4839,125.892 98.5,107.5C 103.835,104.166 109.501,101.333 115.5,99C 140.105,92.8118 160.105,99.6451 175.5,119.5 Z"/></g>
<g><path style="opacity:1" fill="#fa7a75" d="M 108.5,114.5 C 125.39,113.222 132.89,120.888 131,137.5C 126.654,147.257 119.154,151.091 108.5,149C 98.2622,143.694 94.7622,135.527 98,124.5C 100.738,120.26 104.238,116.926 108.5,114.5 Z"/></g>
<g><path style="opacity:0.996" fill="#fa7a75" d="M 222.5,146.5 C 315.028,184.261 407.694,221.761 500.5,259C 503.106,259.792 505.106,261.292 506.5,263.5C 337.833,263.5 169.167,263.5 0.5,263.5C 28.1667,233.5 55.8333,203.5 83.5,173.5C 86.2226,176.586 88.7226,179.92 91,183.5C 103.619,197.892 119.453,204.059 138.5,202C 164.746,197.254 180.08,181.754 184.5,155.5C 189.511,155.666 194.511,155.499 199.5,155C 207.571,153.034 215.238,150.201 222.5,146.5 Z"/></g>
<g><path style="opacity:1" fill="#e64c3d" d="M 233.5,185.5 C 236.978,185.184 240.312,185.684 243.5,187C 247,190.5 250.5,194 254,197.5C 256.865,206.968 253.365,211.468 243.5,211C 239.033,207.535 234.867,203.702 231,199.5C 228.418,194.12 229.251,189.453 233.5,185.5 Z"/></g>
<g><path style="opacity:1" fill="#e64c3d" d="M 181.5,211.5 C 190.036,211.2 193.87,215.2 193,223.5C 189.535,227.967 185.702,232.133 181.5,236C 171.426,239.553 166.926,236.053 168,225.5C 172.031,220.304 176.531,215.637 181.5,211.5 Z"/></g>
<g><path style="opacity:1" fill="#e64c3c" d="M 287.5,211.5 C 292.384,210.861 296.217,212.527 299,216.5C 299.861,222.585 299.527,228.585 298,234.5C 294.662,237.318 290.829,238.151 286.5,237C 284.951,235.786 283.785,234.286 283,232.5C 282.333,227.167 282.333,221.833 283,216.5C 284.025,214.313 285.525,212.646 287.5,211.5 Z"/></g>
<g><path style="opacity:0.87" fill="#f58476" d="M 0.5,263.5 C 169.167,263.5 337.833,263.5 506.5,263.5C 507.167,263.5 507.5,263.833 507.5,264.5C 338.43,264.168 169.43,264.501 0.5,265.5C 0.5,264.833 0.5,264.167 0.5,263.5 Z"/></g>
<g><path style="opacity:1" fill="#e64c3c" d="M 507.5,264.5 C 509.342,266.19 510.675,268.19 511.5,270.5C 511.5,312.5 511.5,354.5 511.5,396.5C 496.02,385.922 480.687,375.089 465.5,364C 435.104,347.026 406.104,349.026 378.5,370C 358.354,381.311 337.354,383.311 315.5,376C 305.207,370.854 295.207,365.187 285.5,359C 262.987,349.449 240.987,350.449 219.5,362C 187.38,386.253 155.046,386.586 122.5,363C 96.5677,348.725 70.9011,349.058 45.5,364C 30.313,375.089 14.9796,385.922 -0.5,396.5C -0.5,352.833 -0.5,309.167 -0.5,265.5C -0.166667,265.5 0.166667,265.5 0.5,265.5C 169.43,264.501 338.43,264.168 507.5,264.5 Z"/></g>
<g><path style="opacity:1" fill="#f4eec9" d="M 511.5,396.5 C 511.5,417.167 511.5,437.833 511.5,458.5C 340.833,458.5 170.167,458.5 -0.5,458.5C -0.5,437.833 -0.5,417.167 -0.5,396.5C 14.9796,385.922 30.313,375.089 45.5,364C 70.9011,349.058 96.5677,348.725 122.5,363C 155.046,386.586 187.38,386.253 219.5,362C 240.987,350.449 262.987,349.449 285.5,359C 295.207,365.187 305.207,370.854 315.5,376C 337.354,383.311 358.354,381.311 378.5,370C 406.104,349.026 435.104,347.026 465.5,364C 480.687,375.089 496.02,385.922 511.5,396.5 Z"/></g>
<g><path style="opacity:1" fill="#b19046" d="M -0.5,458.5 C 170.167,458.5 340.833,458.5 511.5,458.5C 511.5,474.833 511.5,491.167 511.5,507.5C 509.833,508.5 508.5,509.833 507.5,511.5C 339.5,511.5 171.5,511.5 3.5,511.5C 2.5,509.833 1.16667,508.5 -0.5,507.5C -0.5,491.167 -0.5,474.833 -0.5,458.5 Z"/></g>
</svg>
